<?xml version="1.0" encoding="utf-8"?>
<!-- Generator: Adobe Illustrator 23.1.1, SVG Export Plug-In . SVG Version: 6.00 Build 0)  -->
<svg version="1.1" id="contents" xmlns="http://www.w3.org/2000/svg" xmlns:xlink="http://www.w3.org/1999/xlink" x="0px" y="0px"
	 viewBox="0 0 381 567.3" style="enable-background:new 0 0 381 567.3;" xml:space="preserve">
<style type="text/css">
	.st0{fill-rule:evenodd;clip-rule:evenodd;fill:#cc3333;}
</style>
<g>
	<path class="st0" d="M149.8,411.7c-5.7,0-10.4-4.4-10.7-10.1c-0.6-10.5-0.6-21.7-0.6-28.3c0-66.4,32.7-100.7,81.8-131.8l0.1-0.1
		c37.6-24.6,55.1-51.7,55.1-85.4c0-41.3-37.5-71.2-89.2-71.2c-48.3,0-83.5,32-89.7,81.5c-0.4,2.9-1.9,5.5-4.2,7.3
		c-1.9,1.4-4.2,2.2-6.5,2.2c-0.6,0-1.1,0-1.7-0.1L9.1,164c-5.6-0.9-9.6-6-9.1-11.7C4.3,107.8,24.5,70,58.3,43
		C93,15.3,141.5,0,194.9,0c52.3,0,99.8,15.1,133.9,42.6c33.7,27.2,52.2,64.7,52.2,105.7c0,32.2-6,58.8-18.2,81.4
		c-12.4,22.9-31.2,42.2-59,61c-3.1,2.1-6.1,4.1-9,6l-0.1,0.1c-35.2,23.3-58.5,38.7-58.5,79.3v3.6c0,5.7,0,13.5,0.2,21
		c0.1,2.9-1,5.7-3,7.8c-2,2.1-4.8,3.3-7.7,3.3H149.8z"/>
	<circle class="st0" cx="188.4" cy="508.6" r="58.6"/>
</g>
</svg>
