<svg xmlns="http://www.w3.org/2000/svg" viewBox="0 0 83.4 65.87"><defs><style>.cls-1{fill:#57646d;}.cls-2{fill:#fff8f0;}.cls-3{fill:#707a82;}.cls-4{fill:#fff;}</style></defs><title>アセット 3</title><g id="レイヤー_2" data-name="レイヤー 2"><g id="レイヤー_1-2" data-name="レイヤー 1"><rect class="cls-1" width="83.4" height="65.87"/><path class="cls-2" d="M6.63,2.9H3.29a1.2,1.2,0,0,0-1.2,1.2V6.52a1.2,1.2,0,0,0,1.2,1.2H6.63a1.2,1.2,0,0,0,1.2-1.2V4.1A1.2,1.2,0,0,0,6.63,2.9Z"/><path class="cls-2" d="M6.63,12.26H3.29a1.2,1.2,0,0,0-1.2,1.2v2.41a1.2,1.2,0,0,0,1.2,1.2H6.63a1.2,1.2,0,0,0,1.2-1.2V13.46A1.2,1.2,0,0,0,6.63,12.26Z"/><path class="cls-2" d="M6.63,21.61H3.29a1.2,1.2,0,0,0-1.2,1.2v2.41a1.21,1.21,0,0,0,1.2,1.21H6.63a1.21,1.21,0,0,0,1.2-1.21V22.81A1.2,1.2,0,0,0,6.63,21.61Z"/><path class="cls-2" d="M6.63,31H3.29a1.21,1.21,0,0,0-1.2,1.21v2.41a1.2,1.2,0,0,0,1.2,1.2H6.63a1.2,1.2,0,0,0,1.2-1.2V32.17A1.21,1.21,0,0,0,6.63,31Z"/><path class="cls-2" d="M6.63,40.32H3.29a1.2,1.2,0,0,0-1.2,1.2v2.41a1.21,1.21,0,0,0,1.2,1.21H6.63a1.21,1.21,0,0,0,1.2-1.21V41.52A1.2,1.2,0,0,0,6.63,40.32Z"/><path class="cls-2" d="M6.63,49.67H3.29a1.21,1.21,0,0,0-1.2,1.21v2.41a1.2,1.2,0,0,0,1.2,1.2H6.63a1.2,1.2,0,0,0,1.2-1.2V50.88A1.21,1.21,0,0,0,6.63,49.67Z"/><path class="cls-2" d="M6.63,59H3.29a1.2,1.2,0,0,0-1.2,1.2v2.41a1.2,1.2,0,0,0,1.2,1.2H6.63a1.2,1.2,0,0,0,1.2-1.2V60.23A1.2,1.2,0,0,0,6.63,59Z"/><path class="cls-2" d="M80,2.9H76.62a1.2,1.2,0,0,0-1.2,1.2V6.52a1.2,1.2,0,0,0,1.2,1.2H80a1.2,1.2,0,0,0,1.2-1.2V4.1A1.2,1.2,0,0,0,80,2.9Z"/><path class="cls-2" d="M80,12.26H76.62a1.2,1.2,0,0,0-1.2,1.2v2.41a1.2,1.2,0,0,0,1.2,1.2H80a1.2,1.2,0,0,0,1.2-1.2V13.46A1.2,1.2,0,0,0,80,12.26Z"/><path class="cls-2" d="M80,21.61H76.62a1.2,1.2,0,0,0-1.2,1.2v2.41a1.21,1.21,0,0,0,1.2,1.21H80a1.21,1.21,0,0,0,1.2-1.21V22.81A1.2,1.2,0,0,0,80,21.61Z"/><path class="cls-2" d="M80,31H76.62a1.21,1.21,0,0,0-1.2,1.21v2.41a1.2,1.2,0,0,0,1.2,1.2H80a1.2,1.2,0,0,0,1.2-1.2V32.17A1.21,1.21,0,0,0,80,31Z"/><path class="cls-2" d="M80,40.32H76.62a1.2,1.2,0,0,0-1.2,1.2v2.41a1.21,1.21,0,0,0,1.2,1.21H80a1.21,1.21,0,0,0,1.2-1.21V41.52A1.2,1.2,0,0,0,80,40.32Z"/><path class="cls-2" d="M80,49.67H76.62a1.21,1.21,0,0,0-1.2,1.21v2.41a1.2,1.2,0,0,0,1.2,1.2H80a1.2,1.2,0,0,0,1.2-1.2V50.88A1.21,1.21,0,0,0,80,49.67Z"/><path class="cls-2" d="M80,59H76.62a1.2,1.2,0,0,0-1.2,1.2v2.41a1.2,1.2,0,0,0,1.2,1.2H80a1.2,1.2,0,0,0,1.2-1.2V60.23A1.2,1.2,0,0,0,80,59Z"/><path class="cls-2" d="M73.31,0V5a4.11,4.11,0,0,1-4.1,4.1h-55A4.11,4.11,0,0,1,10.11,5V0Z"/><rect class="cls-2" x="10.12" y="14.13" width="63.18" height="38.49" rx="4.09"/><path class="cls-2" d="M73.3,61.71v4.16H10.11V61.71a4.1,4.1,0,0,1,4.1-4.09h55A4.1,4.1,0,0,1,73.3,61.71Z"/><circle class="cls-3" cx="41.71" cy="33.22" r="13.29" transform="translate(-0.16 66.23) rotate(-76.79)"/><polygon class="cls-4" points="37.2 25.82 50 33.22 37.2 40.61 37.2 25.82"/></g></g></svg>