<svg xmlns="http://www.w3.org/2000/svg" viewBox="0 0 65.07 80.01"><defs><style>.cls-1{fill:#fff;}.cls-2{fill:#908587;}.cls-3{fill:#c45465;}</style></defs><title>アセット 8</title><g id="レイヤー_2" data-name="レイヤー 2"><g id="レイヤー_1-2" data-name="レイヤー 1"><rect class="cls-1" width="65.07" height="80.01"/><rect class="cls-2" x="8.54" y="24.89" width="47.98" height="3.71"/><rect class="cls-2" x="8.54" y="33.62" width="33.15" height="2.62"/><rect class="cls-2" x="8.54" y="40.09" width="24.84" height="2.62"/><rect class="cls-2" x="8.54" y="46.57" width="24.84" height="2.62"/><rect class="cls-2" x="8.54" y="53.05" width="28.92" height="2.62"/><rect class="cls-2" x="43.85" y="40.09" width="11.94" height="2.62"/><rect class="cls-2" x="46.85" y="33.62" width="8.94" height="2.62"/><rect class="cls-2" x="46.85" y="46.57" width="8.94" height="2.62"/><rect class="cls-2" x="45.38" y="53.05" width="10.41" height="2.62"/><rect class="cls-2" x="46.11" y="65.77" width="10.41" height="3.93"/><rect class="cls-2" x="4.94" y="62.92" width="55.18" height="0.65"/><rect class="cls-3" x="35.56" y="3.72" width="20.52" height="17.1"/><rect class="cls-2" x="8.19" y="3.72" width="24.8" height="1.71"/><rect class="cls-2" x="8.19" y="7.14" width="24.8" height="1.71"/><rect class="cls-2" x="8.19" y="10.56" width="24.8" height="1.71"/><rect class="cls-2" x="8.19" y="13.98" width="24.8" height="1.71"/><rect class="cls-2" x="8.19" y="17.4" width="24.8" height="1.71"/><rect class="cls-2" x="8.19" y="20.82" width="24.8" height="1.71"/></g></g></svg>