<svg xmlns="http://www.w3.org/2000/svg" viewBox="0 0 54.21 48.74"><defs><style>.cls-1{fill:#b7ddcb;}.cls-2{fill:#91cdb1;}</style></defs><title>アセット 19</title><g id="レイヤー_2" data-name="レイヤー 2"><g id="レイヤー_1-2" data-name="レイヤー 1"><path class="cls-1" d="M54.21,4.05V34.22a4,4,0,0,1-3.44,4,2.69,2.69,0,0,1-.63.06H31.62L18.09,48.74l.27-10.46H4.05a2.73,2.73,0,0,1-.64-.06A4,4,0,0,1,.06,34.87,2.81,2.81,0,0,1,0,34.22V4.05A4,4,0,0,1,4.05,0H50.14A4.06,4.06,0,0,1,54.21,4.05Z"/><rect class="cls-2" x="6.45" y="6.15" width="38.33" height="4.14"/><rect class="cls-2" x="6.45" y="17.54" width="42.25" height="4.14"/><rect class="cls-2" x="6.45" y="28.87" width="23.03" height="4.14"/></g></g></svg>