<svg xmlns="http://www.w3.org/2000/svg" viewBox="0 0 64.64 97.27"><defs><style>.cls-1{fill:#fff;}.cls-2{fill:#56c1be;}.cls-3{fill:#908587;}</style></defs><title>アセット 9</title><g id="レイヤー_2" data-name="レイヤー 2"><g id="レイヤー_1-2" data-name="レイヤー 1"><rect class="cls-1" width="64.64" height="97.27"/><rect class="cls-2" x="8.84" y="21.23" width="13.18" height="12.9"/><rect class="cls-2" x="25.27" y="21.23" width="13.18" height="12.9"/><rect class="cls-2" x="41.7" y="21.38" width="13.17" height="12.9"/><rect class="cls-3" x="9.03" y="37.28" width="45.2" height="2.11"/><rect class="cls-3" x="9.03" y="41.28" width="45.2" height="2.11"/><rect class="cls-3" x="9.03" y="45.28" width="45.2" height="2.11"/><rect class="cls-3" x="9.03" y="49.28" width="45.2" height="2.11"/><rect class="cls-3" x="9.03" y="53.28" width="45.2" height="2.11"/><rect class="cls-3" x="9.03" y="57.28" width="45.2" height="2.11"/><rect class="cls-3" x="9.03" y="61.28" width="45.2" height="2.11"/><rect class="cls-3" x="9.03" y="65.28" width="45.2" height="2.11"/><rect class="cls-3" x="9.03" y="69.28" width="45.2" height="2.11"/><rect class="cls-3" x="9.03" y="73.28" width="45.2" height="2.11"/><rect class="cls-3" x="9.03" y="77.28" width="45.2" height="2.11"/><rect class="cls-3" x="9.03" y="81.28" width="45.2" height="2.11"/><rect class="cls-3" x="9.03" y="85.28" width="45.2" height="2.11"/><rect class="cls-3" x="9.03" y="89.28" width="45.2" height="2.11"/><rect class="cls-3" x="9.03" y="13.34" width="45.2" height="2.11"/><rect class="cls-3" x="9.03" y="8.21" width="45.2" height="2.11"/></g></g></svg>