<svg xmlns="http://www.w3.org/2000/svg" viewBox="0 0 100.85 128"><defs><style>.cls-1{fill:#38526c;}.cls-2{fill:#e7e7e8;opacity:0.1;}.cls-3{fill:#ccdbe3;}.cls-4{fill:#040000;opacity:0.3;}.cls-5{fill:#fff;opacity:0.2;}</style></defs><title>アセット 12</title><g id="レイヤー_2" data-name="レイヤー 2"><g id="レイヤー_1-2" data-name="レイヤー 1"><path class="cls-1" d="M100.85,83.2v27.9c0,9.34-22.57,16.9-50.43,16.9-17.64,0-33.18-3-42.18-7.64C3.61,118,.72,115.24.13,112.25A5.07,5.07,0,0,1,0,111.1V83.2A1.06,1.06,0,0,1,0,83s0-.07,0-.09a3.27,3.27,0,0,1,0-.44,1.05,1.05,0,0,1,.05-.19,2.36,2.36,0,0,1,.12-.51v0a8,8,0,0,1,.36-1C3.4,74.6,15.9,69.57,32.67,67.47c2.19-.28,4.46-.51,6.78-.68h.12c3.51-.27,7.14-.4,10.85-.4s7.35.13,10.85.4h.13c2.31.17,4.58.4,6.77.68,16.77,2.1,29.28,7.13,32.08,13.23a5.73,5.73,0,0,1,.36,1v0a1.91,1.91,0,0,1,.13.51,6,6,0,0,1,.08.63V83A.72.72,0,0,1,100.85,83.2Z"/><path class="cls-2" d="M100.85,83.29v1.34c0,9.34-22.57,16.92-50.43,16.92S0,94,0,84.63V83.29a5.47,5.47,0,0,0,0,.59c.66,6.58,12.57,12.23,29.49,14.8l1.76.25c1,.15,1.91.28,2.89.39.4,0,.83.06,1.25.12q3.54.39,7.31.58c1.67.08,3.37.15,5.09.17.85,0,1.72,0,2.59,0s1.74,0,2.59,0c1.72,0,3.42-.09,5.1-.17,2.5-.13,5-.32,7.3-.58.43-.06.85-.1,1.25-.12,1-.11,1.94-.24,2.89-.39l1.76-.25c16.92-2.57,28.84-8.22,29.49-14.8A5.41,5.41,0,0,0,100.85,83.29Z"/><path class="cls-3" d="M100.85,83.12v.17a5.41,5.41,0,0,1,0,.59c-.89,6.61-12.74,12.19-29.49,14.8l-1.76.25c-.59.09-1.19.15-1.78.24-.36,0-.74.08-1.11.15s-.82.06-1.25.12c-1.57.15-3.18.3-4.82.41-.83.06-1.65.13-2.48.17-1.68.06-3.38.13-5.1.17-.85,0-1.72,0-2.59,0s-1.74,0-2.59,0c-1.72,0-3.42-.11-5.09-.17-.83,0-1.66-.11-2.49-.17-1.63-.11-3.24-.26-4.82-.41-.42-.06-.85-.1-1.25-.12s-.74-.11-1.1-.15l-1.79-.24-1.76-.25C12.78,96.07.93,90.49,0,83.88a5.47,5.47,0,0,1,0-.59v-.17A.47.47,0,0,1,0,83s0-.07,0-.09a4.16,4.16,0,0,1,.09-.63,1.87,1.87,0,0,0,0-.32.15.15,0,0,1,0-.13.56.56,0,0,1,0-.17,1.87,1.87,0,0,1,.13-.4c.06-.19.15-.41.23-.62,2.63-6,14.63-11.06,30.83-13.29,1.93-.27,3.93-.51,6-.68a.12.12,0,0,1,.08,0c4.14-.38,8.49-.57,13-.57s8.83.19,13,.57a.13.13,0,0,1,.09,0c2.06.17,4.05.41,6,.68,16.2,2.23,28.19,7.24,30.82,13.29a5.92,5.92,0,0,1,.36,1c0,.21,0,.4.09.62a6,6,0,0,1,.08.63V83S100.85,83.05,100.85,83.12Z"/><path class="cls-3" d="M84.17,106.61v7.8a94.07,94.07,0,0,1-13.82,3v-7.8A94.07,94.07,0,0,0,84.17,106.61Z"/><path class="cls-4" d="M100.65,81.61a.79.79,0,0,1,0,.09v0C98.23,90.29,76.69,97,50.42,97S2.61,90.29.23,81.72v0a.11.11,0,0,1,0-.07l0,0a1.87,1.87,0,0,1,.13-.4c.06-.19.15-.41.23-.62,2.63-6,14.63-11.06,30.83-13.29,1.93-.27,3.93-.51,6-.68a.12.12,0,0,1,.08,0c4.14-.38,8.49-.57,13-.57s8.83.19,13,.57a.13.13,0,0,1,.09,0c2.06.17,4.05.41,6,.68,16.2,2.23,28.19,7.24,30.82,13.29A5.92,5.92,0,0,1,100.65,81.61Z"/><path class="cls-1" d="M100.85,50.21V78.09a6.14,6.14,0,0,1-.56,2.5.37.37,0,0,0,0,.11C96.49,88.81,75.62,95,50.42,95S4.35,88.81.59,80.7a.37.37,0,0,0,0-.11C.47,80.38.38,80.17.32,80a5.24,5.24,0,0,1-.17-.62v0A2,2,0,0,1,0,78.77c0-.24,0-.45,0-.68V50.19a5.61,5.61,0,0,1,.21-1.47s0-.08,0-.1a9.52,9.52,0,0,1,.34-.94C3.42,41.59,15.94,36.56,32.7,34.46Q36,34,39.45,33.78c3.52-.26,7.19-.41,11-.41s7.45.15,11,.41q3.47.26,6.75.68c16.75,2.1,29.28,7.13,32.1,13.22a6.2,6.2,0,0,1,.34.94s0,.06,0,.1A5.77,5.77,0,0,1,100.85,50.21Z"/><path class="cls-2" d="M100.85,50.3v1.33c0,7.07-13,13.12-31.38,15.67-.43,0-.87.11-1.3.17a146.05,146.05,0,0,1-17.75,1.06,146.05,146.05,0,0,1-17.75-1.06c-.42-.06-.87-.13-1.29-.17C13,64.75,0,58.7,0,51.63V50.3a5.85,5.85,0,0,0,0,.59c.68,6.73,13.17,12.48,30.74,15l.51.06c1.36.21,2.72.36,4.14.51l1.94.19c.68.07,1.38.13,2.08.17h.12c2.68.21,5.44.34,8.26.38.85,0,1.72,0,2.59,0s1.74,0,2.59,0c2.83,0,5.59-.17,8.26-.38h.13c.7,0,1.4-.1,2.08-.17l1.93-.19c1.42-.15,2.78-.3,4.14-.51l.51-.06c17.58-2.49,30.06-8.24,30.74-15A5.87,5.87,0,0,0,100.85,50.3Z"/><path class="cls-3" d="M100.85,50.1v.2a5.87,5.87,0,0,1,0,.59c-.91,6.73-13.33,12.44-30.74,15l-.51.06c-.59.09-1.19.15-1.78.23-.79.09-1.55.17-2.36.28-.66.06-1.34.13-2,.17l-2.12.19c-.23,0-.44,0-.68,0-.83.07-1.65.11-2.48.15-1.68.09-3.38.15-5.1.19H47.83c-1.72,0-3.42-.1-5.09-.19-.83,0-1.66-.08-2.49-.15-.23,0-.44,0-.68,0l-2.12-.19c-.68,0-1.36-.11-2-.17s-1.57-.19-2.35-.28c-.6-.08-1.19-.14-1.79-.23l-.51-.06C13.38,63.33,1,57.62,0,50.89a5.85,5.85,0,0,1,0-.59v-.2c0-.21,0-.42,0-.63a2.86,2.86,0,0,1,.11-.64.78.78,0,0,1,0-.21H100.65a5,5,0,0,1,.07.54,5.05,5.05,0,0,1,.11.78C100.83,50,100.85,50.05,100.85,50.1Z"/><path class="cls-3" d="M84.17,73.6v7.8a94.07,94.07,0,0,1-13.82,3v-7.8A94.07,94.07,0,0,0,84.17,73.6Z"/><path class="cls-4" d="M100.63,48.62v.1C98.19,57.3,76.66,64,50.42,64S2.65,57.3.21,48.72v-.1Z"/><path class="cls-1" d="M100.85,17.2V45.07a6.34,6.34,0,0,1-.6,2.61c-.15.32-.32.62-.51.94C94.9,56.26,74.67,62,50.42,62S5.94,56.26,1.1,48.62C.91,48.3.74,48,.59,47.68a.34.34,0,0,0,0-.1A5.67,5.67,0,0,1,.32,47a3.28,3.28,0,0,1-.15-.51.78.78,0,0,1,0-.21A2.81,2.81,0,0,1,0,45.75c0-.23,0-.44,0-.68V17.18C.17,7.88,22.67.38,50.42.38c17.16,0,32.32,2.87,41.42,7.26,5.31,2.55,8.58,5.63,9,9C100.82,16.79,100.85,17,100.85,17.2Z"/><path class="cls-2" d="M100.85,17.28v1.34c0,7.24-13.59,13.42-32.7,15.84a145.71,145.71,0,0,1-17.73,1.06A145.55,145.55,0,0,1,32.7,34.46C13.59,32,0,25.86,0,18.62V17.28c0,7.6,14.9,14,35.43,16.14,1.32.12,2.66.25,4,.36,3.52.25,7.19.4,11,.4s7.45-.15,11-.4c1.36-.11,2.7-.24,4-.36C85.94,31.29,100.85,24.88,100.85,17.28Z"/><path class="cls-3" d="M100.85,17.09v.11c-.13,7.62-15,14.05-35.44,16.22-1.31.12-2.65.25-4,.36-3.53.25-7.2.4-11,.4s-7.45-.15-11-.4c-1.36-.11-2.7-.24-4-.36C15,31.25.13,24.82,0,17.2v-.11C0,7.66,22.57,0,50.42,0c16.82,0,31.7,2.8,40.87,7.09,5.73,2.68,9.24,6,9.51,9.51A1.57,1.57,0,0,1,100.85,17.09Z"/><path class="cls-3" d="M84.17,40.59v7.8a94.07,94.07,0,0,1-13.82,3v-7.8A94.07,94.07,0,0,0,84.17,40.59Z"/><path class="cls-5" d="M50.42,0V128c-17.64,0-33.18-3-42.18-7.64C3.61,118,.72,115.24.13,112.25A5.07,5.07,0,0,1,0,111.1v-28A.47.47,0,0,1,0,83s0-.07,0-.09a3.27,3.27,0,0,1,0-.44,1.31,1.31,0,0,1,.09-.51.15.15,0,0,1,0-.13.19.19,0,0,1,0-.15,3.25,3.25,0,0,1,.11-.42c.06-.19.15-.41.23-.62C.47,80.38.38,80.17.32,80a5.24,5.24,0,0,1-.17-.62v0A2,2,0,0,1,0,78.77c0-.24,0-.45,0-.68v-28c0-.21,0-.42,0-.63a2.86,2.86,0,0,1,.11-.64.48.48,0,0,1,.06-.21,5.26,5.26,0,0,1,.34-1A5.67,5.67,0,0,1,.32,47a3.28,3.28,0,0,1-.15-.51.78.78,0,0,1,0-.21A2.81,2.81,0,0,1,0,45.75c0-.23,0-.44,0-.68v-28C0,7.66,22.57,0,50.42,0Z"/></g></g></svg>