<?xml version="1.0" encoding="utf-8"?>
<!-- Generator: Adobe Illustrator 23.1.1, SVG Export Plug-In . SVG Version: 6.00 Build 0)  -->
<svg version="1.1" id="レイヤー_1" xmlns="http://www.w3.org/2000/svg" xmlns:xlink="http://www.w3.org/1999/xlink" x="0px"
	 y="0px" viewBox="0 0 74.7 50.3" style="enable-background:new 0 0 74.7 50.3;" xml:space="preserve">
<style type="text/css">
	.st0{fill:#F6EB87;}
	.st1{fill:#EFE647;}
	.st2{fill:#F9F9F7;}
</style>
<title>アセット 1</title>
<path class="st0" d="M63.1,4.7L44.9,22.9c-0.9,0.1-1.8,0.4-2.6,0.8c-1.7-5.5-6.3-9.5-12-10.5C33.7,4.7,42.1-0.6,51.2,0
	c2.7,0.2,5.4,0.9,7.9,2.1C60.5,2.8,61.8,3.7,63.1,4.7z"/>
<path class="st1" d="M48.5,22.8c6.3,0.9,10.6,6.8,9.7,13c-0.2,1.5-0.7,2.9-1.5,4.1h2.2c10.5-5,14.9-17.5,9.9-28
	c-1.3-2.8-3.3-5.3-5.7-7.3L44.9,22.9C46.1,22.7,47.3,22.6,48.5,22.8z"/>
<path class="st2" d="M69.5,40H58.9h-2.2c1.3-2.2,1.8-4.7,1.5-7.3c-0.7-5.1-4.7-9.2-9.8-9.9c-1.2-0.2-2.4-0.1-3.6,0l0,0
	c-0.9,0.1-1.8,0.4-2.6,0.7c-1.7-5.5-6.4-9.5-12-10.5c0,0,0,0,0,0c-0.9-0.2-1.7-0.2-2.6-0.2c-8.4,0-15.3,6.8-15.3,15.2
	c0,0.4,0,0.9,0,1.3C10.6,28.9,8.7,29.1,7,30C3.3,32,1.8,36.5,3.8,40.2C1.5,40.8,0,42.9,0,45.2c0,0.3,0,0.6,0.1,0.9
	c0.4,2.1,2,3.8,4.1,4.1c0.3,0.1,0.6,0.1,0.9,0.1h12.4h52c2.8,0,5.2-2.3,5.2-5.1c0,0,0,0,0,0C74.7,42.3,72.4,40,69.5,40z"/>
</svg>
