<svg xmlns="http://www.w3.org/2000/svg" viewBox="0 0 111.26 81.71"><defs><style>.cls-1{fill:#c18a53;}.cls-2{fill:#a47547;}.cls-2,.cls-5,.cls-6{isolation:isolate;}.cls-3{fill:#e0e0e0;}.cls-4{fill:#fff;}.cls-5{fill:#afafaf;}.cls-6{fill:#c6c6c6;}.cls-7{fill:#dd4a4a;}.cls-8{fill:#c1c1c1;}</style></defs><title>アセット 17</title><g id="レイヤー_2" data-name="レイヤー 2"><g id="レイヤー_1-2" data-name="レイヤー 1"><polygon class="cls-1" points="0 10.43 0 81.71 20.79 81.71 90.47 10.43 0 10.43"/><polygon class="cls-1" points="20.79 81.71 111.27 81.71 111.27 10.43 90.47 10.43 20.79 81.71"/><polygon class="cls-2" points="20.79 81.71 111.27 81.71 111.27 10.43 90.47 10.43 20.79 81.71"/><path class="cls-3" d="M56.15,9c-3.3-3.3-21.9-14.78-47.46-3V73h93.88V6.08C78.06-5.39,58.59,6.61,56.15,9Z"/><path class="cls-4" d="M56.13,71.63V16c-3.38-3.34-22-14.72-47.44-3.1V68.66C34.23,56.86,52.82,68.32,56.13,71.63Z"/><path class="cls-5" d="M56.13,71.63h0V73h46.41V68.67C78,57.2,58.56,69.19,56.13,71.63Z"/><path class="cls-4" d="M8.69,68.66V73H56.13V71.63C52.82,68.32,34.23,56.86,8.69,68.66Z"/><path class="cls-6" d="M8.69,68.66V73H56.13V71.63C52.82,68.32,34.23,56.86,8.69,68.66Z"/><rect class="cls-3" x="16.37" y="22.6" width="33.03" height="5.22"/><rect class="cls-3" x="16.37" y="34.77" width="33.03" height="5.22"/><rect class="cls-3" x="16.37" y="46.94" width="33.03" height="5.22"/><polygon class="cls-7" points="38.25 38.77 29.55 29.38 20.86 38.77 20.86 0 38.25 0 38.25 38.77"/><rect class="cls-8" x="62.59" y="22.6" width="33.03" height="5.22"/><rect class="cls-8" x="62.59" y="34.77" width="33.03" height="5.22"/><rect class="cls-8" x="62.59" y="46.94" width="33.03" height="5.22"/></g></g></svg>