<svg xmlns="http://www.w3.org/2000/svg" viewBox="0 0 65.47 58.88"><defs><style>.cls-1{fill:#59ba8e;}.cls-2{fill:#6ebf97;}.cls-3{fill:#040000;opacity:0.06;}.cls-4{fill:#91cdb1;}</style></defs><title>アセット 18</title><g id="レイヤー_2" data-name="レイヤー 2"><g id="レイヤー_1-2" data-name="レイヤー 1"><path class="cls-1" d="M65.47,4V42.26a4,4,0,0,1-4,4H4a4,4,0,0,1-4-4V4A4,4,0,0,1,4,0H61.48a3.83,3.83,0,0,1,1,.12A4,4,0,0,1,65.35,3,3.83,3.83,0,0,1,65.47,4Z"/><path class="cls-2" d="M65.47,4.9V41.35a4.87,4.87,0,0,1-1.06,3,5.74,5.74,0,0,1-.41.45,3.27,3.27,0,0,1-.35.3,2.75,2.75,0,0,1-.44.32,2.23,2.23,0,0,1-.33.2,4.87,4.87,0,0,0,.69-1.27,4.79,4.79,0,0,0,.31-1.7V6.25A4.9,4.9,0,0,0,59,1.36H3.3A4.72,4.72,0,0,0,1,1.92,4.87,4.87,0,0,1,4.89,0H60.58a4.83,4.83,0,0,1,2.33.6,4.92,4.92,0,0,1,2,2A5,5,0,0,1,65.47,4.9Z"/><polygon class="cls-1" points="21.84 42.04 43.19 42.04 43.62 58.88 21.84 42.04"/><path class="cls-3" d="M64.41,44.4a4.93,4.93,0,0,1-3.84,1.85H43.3l.32,12.63L27.29,46.25H4.89A4.91,4.91,0,0,1,1.06,44.4H26.55l16.2,12.52L42.43,44.4Z"/><rect class="cls-4" x="13.13" y="9.08" width="38.33" height="4.14"/><rect class="cls-4" x="13.13" y="20.47" width="42.25" height="4.14"/><rect class="cls-4" x="13.13" y="31.8" width="23.03" height="4.14"/></g></g></svg>