<svg xmlns="http://www.w3.org/2000/svg" viewBox="0 0 122.69 97.15"><defs><style>.cls-1{fill:#727272;}.cls-2{fill:#595959;}.cls-3{fill:#4c4c4c;}.cls-4{fill:#333;}.cls-5{fill:#7f7f7f;}</style></defs><title>アセット 16</title><g id="レイヤー_2" data-name="レイヤー 2"><g id="レイヤー_1-2" data-name="レイヤー 1"><path class="cls-1" d="M115.9,82.51H6.8A6.82,6.82,0,0,1,0,75.71V6.8A6.82,6.82,0,0,1,6.8,0H115.9a6.81,6.81,0,0,1,6.79,6.8V75.71A6.81,6.81,0,0,1,115.9,82.51Z"/><rect class="cls-2" x="42.35" y="82.44" width="38.02" height="8.37"/><rect class="cls-3" x="8.48" y="8.23" width="105.75" height="65.57"/><polygon class="cls-4" points="94.37 8.23 114.23 8.23 114.23 73.82 27.18 73.82 94.37 8.23"/><path class="cls-5" d="M95.05,97.15H27.66a2.26,2.26,0,0,1-2.25-2.26V91a2.26,2.26,0,0,1,2.25-2.26H95.05A2.26,2.26,0,0,1,97.31,91v3.94A2.27,2.27,0,0,1,95.05,97.15Z"/></g></g></svg>