<svg xmlns="http://www.w3.org/2000/svg" viewBox="0 0 197.7 101.4"><defs><style>.cls-1{fill:#c33;}</style></defs><title>アセット 6</title><g id="レイヤー_2" data-name="レイヤー 2"><g id="レイヤー_1-2" data-name="レイヤー 1"><path class="cls-1" d="M55,14.4a6,6,0,0,0,5.9,5.8c4.5,0,7.6-4.2,7.6-8.1C68.5,4.2,61.1,0,53.7,0c-4.6,0-9,1.7-11.7,4.6a11.63,11.63,0,0,0-3.2,7.7,29.13,29.13,0,0,0-6.4-.7C20.6,11.7,8.1,19,8.1,32.4A18.13,18.13,0,0,0,11,42.6c-6.1,2.2-9.8,6.8-9.8,12.8,0,6.9,4.7,10,9,11.8C3.9,69.8,0,75.1,0,81.5c0,18.5,24.4,19.9,31.9,19.9,15,0,32.5-5.4,32.5-20.5,0-8.2-5.6-14.9-15-18-6.9-2.3-14-2.5-20.7-2.5H24.2c-5.5,0-11.8-.6-11.8-5.2,0-2,1.5-4.3,3.5-4.3a9.09,9.09,0,0,1,2.9.8,35.75,35.75,0,0,0,14.4,3.4c12,0,24.2-7.4,24.2-21.6a21,21,0,0,0-9.5-17.7v-.2a7,7,0,0,1,1.7-5,5.42,5.42,0,0,1,4-1.6,5.33,5.33,0,0,1,3.6,1.4A5.1,5.1,0,0,0,55,14.4ZM46,33.2c-.3,8.1-6.9,11.7-13.4,11.7-6.3,0-12.7-3.6-12.7-11.6,0-6.7,5.5-11.7,12.8-11.7C39,21.6,45.8,25.7,46,33.2ZM32,91.5a42.2,42.2,0,0,1-12.6-1.8c-3.5-1.3-7.3-4.2-7.3-8.3,0-4.7,4.1-7.2,5.9-8h0c4.4-2.1,11.6-2.3,14.5-2.3,7.4,0,19.8,1.3,19.8,10.1C52.2,91,35.4,91.5,32,91.5Z"/><path class="cls-1" d="M98.4,11.7c-18.2,0-30,13.6-30,34.6,0,20.8,11.7,34.3,29.9,34.3,18.9,0,31.1-13.6,31.1-34.7,0-9.4-2.9-18.4-7.9-24.5C116.2,14.9,108.7,11.7,98.4,11.7Zm0,58.6c-16.6,0-17.9-18.7-17.9-24.4S82,34,84.5,29.8c3.2-5.4,7.7-7.8,14.6-7.8,4.4,0,10.4,1.1,13.9,6.6,2.7,4.1,4.2,10.4,4.2,16.8C117.3,52.9,115.4,70.3,98.4,70.3Z"/><path class="cls-1" d="M189.8,21.4c-5.2-6.5-12.8-9.6-23.1-9.6-18.2,0-30,13.6-30,34.6,0,20.8,11.7,34.3,29.9,34.3,18.9,0,31.1-13.6,31.1-34.7C197.7,36.5,194.8,27.5,189.8,21.4ZM166.7,70.3c-16.6,0-17.9-18.7-17.9-24.4s1.5-11.9,4-16.1c3.2-5.4,7.7-7.8,14.6-7.8,4.4,0,10.4,1.1,13.9,6.6,2.7,4.1,4.2,10.4,4.2,16.8C185.6,52.9,183.8,70.3,166.7,70.3Z"/><path class="cls-1" d="M95.7,50.4a7.9,7.9,0,1,0,7.9,7.9A7.85,7.85,0,0,0,95.7,50.4Z"/><path class="cls-1" d="M162.9,50.4a7.9,7.9,0,1,0,7.9,7.9A8,8,0,0,0,162.9,50.4Z"/></g></g></svg>